HIERARCHY
ROOT hip
{
	OFFSET 0.000000 0.000000 0.000000 
	CHANNELS 6 Xposition Yposition Zposition Xrotation Zrotation Yrotation
	JOINT abdomen
	{
		OFFSET 0.000000 3.402643 0.000000 
		CHANNELS 3 Xrotation Zrotation Yrotation
		JOINT chest
		{
			OFFSET 0.000000 8.438565 -0.680529 
			CHANNELS 3 Xrotation Zrotation Yrotation
			JOINT neck
			{
				OFFSET 0.000000 10.207942 -0.272212 
				CHANNELS 3 Xrotation Zrotation Yrotation
				JOINT head
				{
					OFFSET 0.000000 3.130431 0.000000 
					CHANNELS 3 Xrotation Zrotation Yrotation
					End Site
					{
						OFFSET 0.000000 3.130435 0.000000 
					}
				}
			}
			JOINT lCollar
			{
				OFFSET 3.470700 6.669187 -0.816635 
				CHANNELS 3 Yrotation Zrotation Xrotation
				JOINT lShldr
				{
					OFFSET 3.198488 0.000000 0.000000 
					CHANNELS 3 Zrotation Yrotation Xrotation
					JOINT lForeArm
					{
						OFFSET 10.139888 0.000000 0.000000 
						CHANNELS 3 Yrotation Zrotation Xrotation
						JOINT lHand
						{
							OFFSET 8.370511 0.000000 0.000000 
							CHANNELS 3 Zrotation Yrotation Xrotation
							End Site
							{
								OFFSET 4.083176 0.000000 0.000000 
							}
						}
					}
				}
			}
			JOINT rCollar
			{
				OFFSET -3.470700 6.669187 -0.816635 
				CHANNELS 3 Yrotation Zrotation Xrotation
				JOINT rShldr
				{
					OFFSET -3.198488 0.000000 0.000000 
					CHANNELS 3 Zrotation Yrotation Xrotation
					JOINT rForeArm
					{
						OFFSET -10.139888 0.000000 0.000000 
						CHANNELS 3 Yrotation Zrotation Xrotation
						JOINT rHand
						{
							OFFSET -8.370511 0.000000 0.000000 
							CHANNELS 3 Zrotation Yrotation Xrotation
							End Site
							{
								OFFSET -4.083176 0.000000 0.000000 
							}
						}
					}
				}
			}
		}
	}
	JOINT lThigh
	{
		OFFSET 5.308129 -1.633274 1.361059 
		CHANNELS 3 Xrotation Zrotation Yrotation
		JOINT lShin
		{
			OFFSET -2.041588 -20.007561 0.000000 
			CHANNELS 3 Xrotation Zrotation Yrotation
			JOINT lFoot
			{
				OFFSET 0.000000 -19.190928 -1.224953 
				CHANNELS 3 Xrotation Yrotation Zrotation
				End Site
				{
					OFFSET 0.000000 -2.449906 4.627600 
				}
			}
		}
	}
	JOINT rThigh
	{
		OFFSET -5.308129 -1.633274 1.361059 
		CHANNELS 3 Xrotation Zrotation Yrotation
		JOINT rShin
		{
			OFFSET 2.041588 -20.007561 0.000000 
			CHANNELS 3 Xrotation Zrotation Yrotation
			JOINT rFoot
			{
				OFFSET 0.000000 -19.190928 -1.224953 
				CHANNELS 3 Xrotation Yrotation Zrotation
				End Site
				{
					OFFSET 0.000000 -2.449906 4.627600 
				}
			}
		}
	}
}
MOTION
Frames: 18
Frame Time: 0.016667
1.548218 31.208929 2.534164 -2.824295 7.081319 -39.693905 15.160130 -4.723094 7.207797 -0.595704 -0.117181 4.307859 -12.645178 -3.278018 0.873940 8.627334 14.362976 -7.256520 2.239031 1.334920 0.039219 -98.661827 22.102278 -140.837387 46.586842 -2.111822 2.696970 -178.356476 -176.601593 -0.362323 -3.938843 -2.982474 0.045583 62.465660 31.324804 160.927765 -78.231339 2.429469 3.165554 -1.653298 3.397818 -147.364288 -56.357651 10.537400 7.739812 49.031761 -0.005244 -0.008155 4.112920 -12.488995 0.888496 -3.916214 -50.516911 -4.353322 38.778782 -0.014934 0.006087 -14.051197 6.208007 1.576505 
2.045011 31.512802 5.616257 0.371932 3.847576 -44.886551 14.343049 -4.040382 6.614151 -1.210941 0.126925 3.844974 -12.645178 -3.278018 0.873940 9.464675 14.933372 -7.487506 2.239031 1.334920 0.039219 -99.836899 21.904047 -136.664429 44.818806 -2.086977 2.676728 -178.356476 -176.601593 -1.465839 -3.938843 -2.982474 0.045583 63.104656 26.872446 162.888275 -86.976715 2.467574 3.319550 -1.663062 3.397222 -168.185165 -61.444218 20.995455 14.092607 61.592392 0.004533 0.001709 9.999092 -5.385293 0.934760 -3.943955 -45.462074 0.008117 31.408724 -0.029776 0.026611 -6.840474 -1.620170 -0.182771 
2.421214 31.613916 8.570501 1.270490 2.226016 -49.842880 14.736441 -4.619001 5.260417 -0.615239 -0.214831 3.254260 -12.645178 -3.278018 0.873940 9.204425 14.792554 -8.270313 2.239031 1.334920 0.039219 -97.634827 20.069929 -131.997543 43.832249 -2.072846 2.665768 -178.356476 -176.601593 0.672833 -3.938843 -2.982474 0.045583 63.540546 25.171032 162.580154 -90.699692 2.476603 3.386355 178.346710 176.602173 -0.518575 -59.384254 25.263206 18.724396 68.787056 -0.006365 -0.010009 0.430427 -3.334971 0.021958 -6.072331 -43.926632 0.402935 28.047501 -0.014383 0.011462 -2.361926 -8.690110 -0.349480 
2.960623 31.843628 11.509152 4.231840 -2.269194 -54.494293 14.862224 -3.492705 3.136219 -0.869147 -0.214819 2.132165 -12.645178 -3.278018 0.873940 9.252903 15.456490 -8.881012 2.239031 1.334920 0.039219 -98.130928 17.781042 -136.756607 40.179131 -2.018926 2.627342 1.653298 -3.397819 -161.466431 -3.938843 -2.982474 0.045583 62.415901 26.156527 164.914688 -88.813766 2.472572 3.352442 178.346710 176.602173 -3.301778 -57.528046 28.963745 16.055458 73.323013 0.002629 -0.010300 -6.288627 -2.237618 -0.256096 -9.509937 -38.009796 -2.395203 30.373268 -0.014787 0.017629 -3.596105 -13.048409 -0.814562 
3.564500 32.148026 14.454601 7.059963 -5.156136 -60.081097 14.751376 -2.559373 1.621084 -1.269532 0.058579 1.268233 -12.645178 -3.278018 0.873940 9.935141 16.530802 -9.810417 2.239031 1.334920 0.039219 -99.124893 14.896747 -148.481522 35.803410 -1.951278 2.585944 1.644130 -3.408162 -125.059586 -3.938843 -2.982474 0.045583 61.841709 26.430803 165.692596 -85.510994 2.462831 3.293432 178.346710 176.602173 -3.282246 -55.379391 31.775970 14.969941 77.234039 -0.007397 -0.011259 -11.234726 0.782223 0.149388 -15.477931 -32.605053 -3.862603 35.661232 0.000076 0.005942 -7.380184 -13.068743 -1.674163 
4.061252 32.328297 17.458864 10.952236 -7.019547 -66.951027 14.605828 -1.653787 1.238929 -1.171875 0.009764 0.956832 -12.645178 -3.278018 0.873940 9.515262 17.714132 -11.572700 2.239031 1.334920 0.039219 -97.358292 14.755558 -139.275726 36.272228 -1.958675 2.590132 1.644130 -3.408162 -134.014664 -3.938843 -2.982474 0.045583 62.284500 24.974613 164.207016 -82.550247 2.451220 3.241088 178.346710 176.602173 -4.268575 -54.001694 36.159573 15.239514 81.252846 0.001427 0.001861 -14.782179 2.968461 0.776301 -22.194117 -26.206650 -5.470027 42.208900 -0.016447 0.016524 -9.216367 -11.452764 -1.850025 
4.467685 32.631905 20.634722 13.309840 -8.689738 -74.058823 14.584579 -1.408210 0.727256 -1.171918 -0.488179 0.693580 -12.645178 -3.278018 0.873940 9.009697 18.299232 -13.373740 2.239031 1.334920 0.039219 -97.057640 16.024860 -140.254700 36.086651 -1.955751 2.588467 1.644130 -3.408162 -131.885757 -3.938843 -2.982474 0.045583 63.872536 22.979488 161.486710 -79.149834 2.434568 3.181389 178.346710 176.602173 -2.950215 -49.567642 39.429516 18.453691 84.421013 0.001088 0.001952 -16.406914 4.592702 1.351104 -27.177301 -21.210575 -7.541955 49.285439 -0.009729 0.013219 -9.498970 -10.254744 -1.725390 
4.731005 33.248196 23.520645 12.070354 -6.475970 -78.921768 13.919101 -1.194348 -0.647672 -1.221234 1.689070 -0.250830 -12.645178 -3.278018 0.873940 8.913782 18.004696 -14.861221 2.239031 1.334920 0.039219 -97.441605 18.079689 -141.661575 34.758350 -1.934668 2.576829 1.643533 -3.398415 -145.118195 -3.938843 -2.982474 0.045583 64.341972 22.008549 158.976471 -73.717140 2.400752 3.089020 178.346115 176.592438 -0.625996 -46.746464 36.344639 23.526876 86.494118 0.000625 0.002219 -14.208214 7.602805 1.909714 -34.221569 -20.590267 -8.663989 56.157116 -0.009746 0.006302 -11.251584 -9.548836 -1.885039 
5.053364 33.699600 26.763168 12.700876 -6.527200 -84.466095 13.341826 -0.978717 -2.116999 -1.689855 1.249457 -0.964584 -12.645178 -3.278018 0.873940 8.357942 18.430632 -16.392061 2.239031 1.334920 0.039219 -98.336761 19.565695 -138.976700 32.892906 -1.904616 2.561316 1.653298 -3.397819 -167.960556 -3.938843 -2.982474 0.045583 64.101982 22.582670 155.323975 -65.627121 2.334569 2.958399 178.346710 176.602173 1.395488 -44.625797 35.696400 25.590698 88.860809 0.000179 0.004902 -9.635644 8.688544 1.459145 -37.604237 -17.732140 -11.570658 62.169121 -0.010043 -0.004350 -11.417033 -9.580789 -1.905877 
5.202105 34.191364 29.824762 11.350104 -7.565729 -88.565643 12.950135 -0.675726 -3.895719 -2.276932 2.107711 -1.939198 -12.645178 -3.278018 0.873940 8.230693 18.924408 -17.600761 2.239031 1.334920 0.039219 -99.902100 20.459143 -139.814789 30.324322 -1.862442 2.541573 -178.356476 -176.601593 2.459942 -3.938843 -2.982474 0.045583 62.457645 23.140570 151.868484 -57.791706 2.253544 2.841573 178.336349 176.593018 3.328503 -41.786896 32.167473 26.540306 90.552284 -0.019526 -0.025378 -3.659616 7.993370 0.519213 -38.773129 -17.856533 -14.428691 67.545525 0.000016 0.005184 -11.315049 -9.700486 -1.944327 
5.385980 34.636459 33.032177 9.671038 -7.394601 -93.532692 12.490575 -0.419518 -4.887922 -2.522759 2.897584 -2.539556 -12.645178 -3.278018 0.873940 8.441360 18.773767 -18.467686 2.239031 1.334920 0.039219 -101.216660 20.451576 -140.872757 26.828041 -1.803697 2.517770 1.653298 -3.397819 -168.692978 -3.938843 -2.982474 0.045583 59.585835 23.960327 146.901642 -51.060799 2.171794 2.751150 178.336349 176.593018 5.408581 -41.092247 28.219927 26.107321 91.637276 -0.009898 -0.031585 2.465241 3.745692 -0.162458 -41.701660 -17.914551 -14.553102 72.482246 -0.009896 0.004778 -11.889739 -8.301365 -1.737503 
5.445005 34.951374 36.086143 8.215319 -7.501249 -98.151047 12.021660 0.305647 -5.530564 -2.742141 4.311482 -3.067051 -12.645178 -3.278018 0.873940 7.764738 18.298302 -19.614796 2.239031 1.334920 0.039219 -102.884354 20.458164 -143.030975 24.142439 -1.757649 2.501944 1.643533 -3.398415 -158.848663 -3.938843 -2.982474 0.045583 56.733658 23.965179 141.880646 -47.739491 2.127678 2.710212 178.336349 176.593018 6.336315 -40.954956 24.254910 23.703941 91.814278 -0.019610 -0.016447 6.224554 -2.627017 0.289470 -43.606728 -17.993383 -14.437794 77.038582 -0.000019 0.002871 -11.774350 -7.967086 -1.657019 
5.462822 35.148079 39.173901 6.549839 -7.461304 -103.608482 11.251892 1.043998 -5.856622 -3.220881 6.015942 -3.481611 -12.645178 -3.278018 0.873940 7.518705 18.904749 -20.019350 2.239031 1.334920 0.039219 -103.676895 22.099312 -142.085587 26.515528 -1.798378 2.515818 1.653298 -3.397819 -162.511353 -3.938843 -2.982474 0.045583 54.771778 23.401728 138.765366 -47.602737 2.125811 2.708581 178.336945 176.602783 6.951550 -40.716938 21.321234 21.822897 90.982460 -0.009719 -0.019716 4.833502 -1.762434 0.145088 -46.207733 -17.859417 -12.691159 81.438164 -0.009932 0.003322 -11.448103 -7.769118 -1.565311 
5.498086 35.304424 42.143055 4.714114 -7.114771 -109.062073 10.334669 1.287371 -6.366663 -3.661585 7.182726 -3.875251 -12.645178 -3.278018 0.873940 7.716616 18.189852 -20.060946 2.239031 1.334920 0.039219 -103.413315 24.799126 -141.762070 30.324322 -1.862442 2.541573 1.653298 -3.397819 -170.040634 -3.938843 -2.982474 0.045583 55.086430 23.277040 137.385818 -48.579578 2.139060 2.720324 178.336945 176.602783 7.732799 -40.908173 19.746231 19.578009 88.899818 -0.009669 -0.007576 2.351152 4.353456 -0.190767 -49.077618 -17.390244 -10.095376 85.447639 -0.000018 0.001806 -11.614452 -7.586825 -1.562535 
5.446569 35.377136 45.137718 3.369740 -7.633420 -115.000130 9.779046 1.559056 -6.596395 -3.956369 8.183841 -4.128336 -12.645178 -3.278018 0.873940 7.348693 18.432421 -20.091290 2.239031 1.334920 0.039219 -104.954742 25.261663 -144.980759 28.312475 -1.828816 2.527438 1.653298 -3.397819 -170.948837 -3.938843 -2.982474 0.045583 56.157940 24.308830 136.324127 -50.347687 2.162523 2.742146 -1.663062 3.397222 -171.056274 -39.362217 17.409622 15.266673 85.017410 -0.008793 -0.009184 -0.453682 5.804420 0.032571 -50.560760 -17.087553 -7.655125 89.145096 0.009504 -0.013008 -12.218116 -7.664472 -1.658606 
5.227996 35.293640 48.181042 2.890645 -8.163568 -121.027428 9.586632 2.108832 -6.860587 -3.952726 8.787968 -4.363461 -12.645178 -3.278018 0.873940 9.029134 18.348394 -20.167349 2.239031 1.334920 0.039219 -103.875824 26.321329 -142.980804 31.203297 -1.876974 2.548116 1.653895 -3.407566 -171.847275 -3.938843 -2.982474 0.045583 57.871284 26.530033 136.137466 -52.604271 2.191471 2.771028 -1.663062 3.397222 -169.034775 -37.170753 15.298528 9.520415 80.549118 -0.017789 -0.006890 -2.143709 3.534396 0.123051 -50.944248 -17.391241 -6.738088 92.479942 -0.000014 -0.019221 -11.816352 -8.536352 -1.784177 
4.893368 35.159786 51.196609 3.480547 -7.924996 -127.268364 9.465682 2.938033 -6.463145 -4.088198 8.523499 -4.238839 -12.645178 -3.278018 0.873940 8.405890 18.178419 -19.435261 2.239031 1.334920 0.039219 -102.648560 25.992500 -141.639328 32.189713 -1.893159 2.555724 1.653298 -3.397819 -171.144150 -3.938843 -2.982474 0.045583 59.879833 28.345369 136.204224 -54.694839 2.217254 2.798781 -1.663062 3.397222 -165.265259 -34.926159 14.645881 3.592294 76.061684 -0.016955 0.005300 -2.992694 -0.883136 -0.034553 -48.947186 -17.398518 -7.797966 94.847008 -0.010093 -0.032360 -11.606763 -10.426413 -2.131704 
4.379640 34.946117 54.287918 2.387683 -8.196100 -133.876450 9.009636 3.346958 -5.621742 -4.448777 8.100845 -3.840268 -12.645178 -3.278018 0.873940 7.149694 18.825371 -19.837311 2.239031 1.334920 0.039219 -101.622238 24.640747 -141.944809 31.486523 -1.881634 2.550272 1.653298 -3.397819 -165.733994 -3.938843 -2.982474 0.045583 61.969555 29.618500 137.136185 -56.003910 2.232876 2.816630 -1.653298 3.397818 -159.366241 -32.565895 10.956029 -1.504845 71.651230 0.003140 -0.010118 -4.227035 -4.255792 -0.313621 -48.971214 -19.998236 -7.068978 97.565994 -0.000019 -0.015243 -10.877742 -10.392062 -1.984876 
